<?xml version="1.0" encoding="UTF-8"?>
<!DOCTYPE svg PUBLIC "-//W3C//DTD SVG 1.1//EN" "http://www.w3.org/Graphics/SVG/1.1/DTD/svg11.dtd">
<!-- Creator: CorelDRAW -->
<svg xmlns="http://www.w3.org/2000/svg" xml:space="preserve" width="297mm" height="297mm" version="1.1" style="shape-rendering:geometricPrecision; text-rendering:geometricPrecision; image-rendering:optimizeQuality; fill-rule:evenodd; clip-rule:evenodd"
viewBox="0 0 29700 29700"
 xmlns:xlink="http://www.w3.org/1999/xlink"
 xmlns:xodm="http://www.corel.com/coreldraw/odm/2003">
 <defs>
  <style type="text/css">
   <![CDATA[
    .str0 {stroke:#1F1C21;stroke-width:423.33;stroke-miterlimit:22.9256}
    .str1 {stroke:#1F1C21;stroke-width:423.33;stroke-linecap:round;stroke-linejoin:round;stroke-miterlimit:22.9256}
    .fil0 {fill:#212121}
    .fil2 {fill:#3F67A6}
    .fil1 {fill:#4A6DA7}
    .fil7 {fill:#6500AC}
    .fil8 {fill:#7F01D8}
    .fil3 {fill:#83A6DE}
    .fil5 {fill:#A120BA}
    .fil9 {fill:#BB6AF5}
    .fil6 {fill:#C928EA}
    .fil4 {fill:#FF7E4D}
   ]]>
  </style>
 </defs>
 <rect class="fil0" x="-0.53" y="0.53" width="29700" height="29700"/>
 <g id="Layer_x0020_1">
  <metadata id="CorelCorpID_0Corel-Layer"/>
  <g id="_105553122299424">
   <path class="fil1 str0" d="M6117.37 14168.35c434.75,-1374.08 -801.24,-2484.9 -1870.28,-2484.9 -1069.05,0 -1663.4,768.55 -1937.62,1661.19l-1292.37 4206.85c-579.44,1886.24 295.82,3930.69 1852.98,4957.42 1703.99,1123.54 4324.26,1079.7 6343.95,-197.33 -3847.87,232 -4732.93,-2971.73 -4500.56,-3706.14l1403.9 -4437.09z"/>
   <path class="fil2 str1" d="M4713.47 18618.29c261.68,1977.91 4881.32,2636.53 6690.78,1141.53 -701.68,1360.52 -1245.75,1981.4 -2247.3,2600.19 -2080.96,238.27 -4075.52,-1014.28 -4446.23,-3042.99 -45.19,-247.29 -63.9,-493.54 2.75,-698.73z"/>
   <path class="fil3 str1" d="M4944.62 19216.27c490.99,337.47 1323.24,288.13 1972.79,-38.87 562.53,-283.18 1014.51,-785.2 1132.15,-1170.21l2267.65 -7420.97c999.42,-3270.65 4937.11,-5017.25 7992.17,-3851.33 1030.36,393.23 2026.64,1221.6 2480.46,2005.58 -1240.88,-639.24 -2711.54,-534.21 -3938.09,35.08 -1434.79,665.95 -2559.87,1957.61 -2958.54,3289.94 -160.79,537.42 -438.88,1575.51 -609.79,2115.72l-1403.89 4437.08c-148.48,469.32 -284.71,678.09 -449.58,1141.53 -1769.51,1396.29 -5561.23,886.98 -6485.33,-543.55z"/>
   <circle class="fil4 str0" transform="matrix(0 1.28531 -1.28531E+000 0 13148.2 8555.22)" r="1686.35"/>
   <path class="fil4 str0" d="M13283.42 14181.21c434.76,-1374.09 -801.23,-2484.91 -1870.28,-2484.91 -1069.04,0 -1663.4,768.55 -1937.62,1661.19l-1292.36 4206.86c-579.45,1886.23 295.53,3931.09 1852.98,4957.41 1703.17,1122.38 4214.93,1088.13 6344.84,-196.35 -3847.87,232 -4660.1,-3205.7 -4501.45,-3707.12l1403.89 -4437.08z"/>
   <path class="fil5 str1" d="M11879.53 18618.29c258.91,1979.69 4930.24,2482.77 6818.02,1077.62 -701.68,1360.51 -1315.02,2010.71 -2316.57,2629.5 -2088.33,245.57 -4045,-1135.47 -4431.77,-2949.04 -52.46,-245.96 -128.7,-591.04 -69.68,-758.08z"/>
   <path class="fil6 str1" d="M12124.41 19230.05c490.99,337.47 1283.8,274.35 1933.35,-52.65 562.53,-283.18 1014.51,-785.2 1132.15,-1170.21l2267.65 -7420.97c999.42,-3270.65 4937.11,-5017.25 7992.17,-3851.33 1030.36,393.23 2026.64,1221.6 2480.46,2005.58 -1240.88,-639.24 -2711.54,-534.21 -3938.09,35.08 -1434.79,665.95 -2559.87,1957.59 -2958.54,3289.94 -806.84,2696.43 -1566,5465.95 -2336.01,7630.42 -1769.51,1396.28 -5643.26,955.05 -6573.14,-465.86z"/>
   <path class="fil7 str1" d="M21033.56 12065.49c664.42,-1558.91 2049.81,-2184.69 3766.55,-2248.38 1306.85,-48.48 2898.77,172.04 3966.57,886.14 -96.94,-654.25 -386.18,-1308.5 -836.49,-1962.78 -2435.29,-1297.85 -5933.82,285.28 -6896.63,3325.02z"/>
   <path class="fil8 str1" d="M28766.68 10703.25c608.16,3296.01 -1773.44,6322.53 -5221.67,6343 0,-1290.44 0,-2580.89 0,-3871.33 2286.14,-115.52 1818.41,-3847.34 -1144.48,-2723.23 1995.07,-1207.93 4600.48,-934.25 6366.15,251.56z"/>
   <circle class="fil9 str0" transform="matrix(0 1.14784 -1.14784E+000 0 23545 15110.6)" r="1686.35"/>
  </g>
 </g>
</svg>
